<?xml version="1.0" standalone="no"?>
<!DOCTYPE svg PUBLIC "-//W3C//DTD SVG 1.1//EN" "http://www.w3.org/Graphics/SVG/1.1/DTD/svg11.dtd" >
<svg xmlns="http://www.w3.org/2000/svg">
<metadata>
Created by FontForge 20120731 at Mon Jun  6 09:40:10 2016
 By admin
</metadata>
<defs>
<font id="iconfont" horiz-adv-x="1024" >
  <font-face 
    font-family="iconfont"
    font-weight="500"
    font-stretch="normal"
    units-per-em="1024"
    panose-1="2 0 6 3 0 0 0 0 0 0"
    ascent="896"
    descent="-128"
    x-height="792"
    bbox="0 -128 1412 896"
    underline-thickness="50"
    underline-position="-100"
    unicode-range="U+0078-E614"
  />
<missing-glyph horiz-adv-x="374" 
d="M34 0v682h272v-682h-272zM68 34h204v614h-204v-614z" />
    <glyph glyph-name=".notdef" horiz-adv-x="374" 
d="M34 0v682h272v-682h-272zM68 34h204v614h-204v-614z" />
    <glyph glyph-name=".null" horiz-adv-x="0" 
 />
    <glyph glyph-name="nonmarkingreturn" horiz-adv-x="341" 
 />
    <glyph glyph-name="x" unicode="x" horiz-adv-x="1001" 
d="M281 543q-27 -1 -53 -1h-83q-18 0 -36.5 -6t-32.5 -18.5t-23 -32t-9 -45.5v-76h912v41q0 16 -0.5 30t-0.5 18q0 13 -5 29t-17 29.5t-31.5 22.5t-49.5 9h-133v-97h-438v97zM955 310v-52q0 -23 0.5 -52t0.5 -58t-10.5 -47.5t-26 -30t-33 -16t-31.5 -4.5q-14 -1 -29.5 -0.5
t-29.5 0.5h-32l-45 128h-439l-44 -128h-29h-34q-20 0 -45 1q-25 0 -41 9.5t-25.5 23t-13.5 29.5t-4 30v167h911zM163 247q-12 0 -21 -8.5t-9 -21.5t9 -21.5t21 -8.5q13 0 22 8.5t9 21.5t-9 21.5t-22 8.5zM316 123q-8 -26 -14 -48q-5 -19 -10.5 -37t-7.5 -25t-3 -15t1 -14.5
t9.5 -10.5t21.5 -4h37h67h81h80h64h36q23 0 34 12t2 38q-5 13 -9.5 30.5t-9.5 34.5q-5 19 -11 39h-368zM336 498v228q0 11 2.5 23t10 21.5t20.5 15.5t34 6h188q31 0 51.5 -14.5t20.5 -52.5v-227h-327z" />
    <glyph glyph-name="uniE600" unicode="&#xe600;" 
d="M803 405q31 0 59.5 -12.5t50 -34t34 -50t12.5 -59.5q0 -33 -12.5 -61t-34 -49.5t-50 -33.5t-59.5 -12q-30 0 -56 10.5t-46 27.5v-127q0 -28 -19.5 -47t-47.5 -19h-502q-28 0 -48 19t-20 47v113q6 22 19 32t39 -5q12 -7 18 -9q26 -13 53.5 -13t51.5 10.5t42 28t28 41
t10 51t-10 51.5t-28 42t-42 28t-51 10t-52 -11q-6 -2 -10 -4q-13 -6 -24.5 -11t-20.5 -4t-15.5 10t-7.5 31v107q0 27 20 47t48 20h159q-17 20 -26.5 45t-9.5 54q0 33 13 62.5t34 50.5t50.5 34t62 13t61.5 -13t50.5 -34t34 -50.5t12.5 -62.5q0 -57 -35 -99h96q28 0 47.5 -20
t19.5 -47v-136q20 17 46 28t56 11z" />
    <glyph glyph-name="uniE601" unicode="&#xe601;" 
d="M862 220q-4 0 -9 -1l-164 194l116 145q27 -14 57 -14q51 0 87 36t36 87t-36 87t-87 36t-87 -36t-36 -87q0 -43 27 -76l-111 -138l-124 147q-1 0 -1 1l-1 1l-1 1l-6 4q-4 2 -9 2h-1h-1h-1h-1q-5 0 -9 -2t-6 -5h-1h-1v-1v-1q-1 0 -1 -1l-118 -148l-118 139q28 34 28 77
q0 51 -36 87t-87 36t-87 -36t-36 -87t36 -87t87 -36q30 0 56 14l125 -148l-154 -193q-13 3 -27 3q-51 0 -87 -36t-36 -87t36 -87t87 -36t87 36t36 87q0 60 -48 97l140 177l64 -75q-35 -32 -35 -79q0 -45 31.5 -76t75.5 -31t75.5 31t31.5 76q0 42 -28 73l66 83l144 -170
q-28 -17 -44.5 -45t-16.5 -61q0 -51 36 -87t87 -36t87 36t36 87t-36 87t-87 36zM862 739q30 0 51 -21t21 -50.5t-21 -50.5t-51 -21t-51 21t-21 50.5t21 50.5t51 21zM88 667.5q0 29.5 21 50.5t51 21t51 -21t21 -50.5t-21 -50.5t-51 -21t-51 21t-21 50.5zM160 25q-30 0 -51 21
t-21 50.5t21 50.5t51 21t51 -21t21 -50.5t-21 -50.5t-51 -21zM511 161q-23 0 -39.5 16.5t-16.5 39.5t16.5 39.5t39.5 16.5t39.5 -16.5t16.5 -39.5t-16.5 -39.5t-39.5 -16.5zM547 318q-18 6 -36 6q-13 0 -26 -4l-78 91l105 132l111 -131zM862 25q-30 0 -51 21t-21 50.5
t21 50.5t51 21t51 -21t21 -50.5t-21 -50.5t-51 -21z" />
    <glyph glyph-name="uniE602" unicode="&#xe602;" 
d="M448 448v444q-174 -22 -298 -146t-146 -298h444zM576 892v-444v-32v-96h-572q16 -125 86.5 -227.5t182 -161.5t239.5 -59q139 0 257 68.5t186.5 186.5t68.5 257q0 128 -59 239.5t-161.5 182t-227.5 86.5z" />
    <glyph glyph-name="uniE603" unicode="&#xe603;" 
d="M826 832l-763 -466l382 -22l-326 -409l842 487l-326 78z" />
    <glyph glyph-name="uniE604" unicode="&#xe604;" 
d="M237 782h550q7 0 12 5t5 13v34q0 7 -5 12t-12 5h-550q-7 0 -12 -5t-5 -12v-34q0 -8 5 -13t12 -5zM151 662h722q7 0 12 5t5 12v34q0 8 -5 13t-12 5h-722q-7 0 -12 -5t-5 -13v-34q0 -7 5 -12t12 -5zM724 280.5q-8 7.5 -18.5 12t-22.5 4.5h-10l-40 69q9 8 14.5 18.5
t5.5 23.5q0 12 -4.5 22.5t-12.5 18t-18.5 12t-23 4.5t-23 -4.5t-18.5 -12t-12.5 -18t-4.5 -22.5q0 -13 5 -23.5t15 -18.5l-72 -154q-4 1 -6 1q-7 0 -13 -1.5t-11 -4.5l-71 87q4 6 6.5 14t2.5 16q0 12 -4.5 22.5t-12.5 18t-18.5 12t-23.5 4.5q-12 0 -22.5 -4.5t-18.5 -12
t-12.5 -18t-4.5 -22t4.5 -22t12.5 -18t18.5 -11.5t22.5 -4h5h4l81 -94q-2 -4 -3 -9t-1 -10q0 -12 4.5 -22t12.5 -18t19 -12t23 -4t22.5 4t18.5 12t12.5 18t4.5 22q0 10 -3 18.5t-9 15.5l70 151l41 -69q-5 -7 -8 -15t-3 -17q0 -12 4.5 -22.5t12.5 -18t19 -11.5t23 -4t22.5 4
t18.5 11.5t12.5 18t4.5 22.5t-4.5 22.5t-12.5 18zM924 610h-824q-15 0 -25 -10t-10 -24v-584q0 -14 10 -24.5t25 -10.5h824q15 0 25 10.5t10 24.5v584q0 14 -10 24t-25 10zM890 43q0 -7 -5 -12t-12 -5h-722q-7 0 -12 5t-5 12v482q0 7 5 12t12 5h722q7 0 12 -5t5 -12v-482z
" />
    <glyph glyph-name="uniE605" unicode="&#xe605;" 
d="M510.5 -76q93.5 0 178.5 36.5t146.5 98t98 147t36.5 178.5t-36.5 178.5t-98 147t-146.5 98t-178.5 36.5t-178.5 -36.5t-146.5 -98t-98 -147t-36.5 -178.5t36.5 -178.5t98 -147t146.5 -98t178.5 -36.5zM510 805q114 0 211.5 -56.5t153.5 -153.5t56 -211t-56 -211
t-153.5 -153.5t-211.5 -56.5t-211 56.5t-153.5 153.5t-56.5 211t56.5 211t153.5 153.5t211 56.5zM305 400h82v-197h-82v197zM469 565h82v-362h-82v362zM634 499h82v-296h-82v296z" />
    <glyph glyph-name="uniE606" unicode="&#xe606;" horiz-adv-x="1366" 
d="M1014 170h-74q0 41 -10.5 67.5t-28.5 39.5t-40.5 21t-49.5 15t-52 16.5t-51 31.5t-44 55q-18 -33 -44 -54.5t-51 -31.5t-52 -17t-49.5 -15t-40.5 -21t-28.5 -39.5t-10.5 -67.5h-75q0 53 11 90t29 57t41.5 32t49.5 19l52 14q26 7 49.5 20.5t41.5 35.5t29 62.5t11 97.5h74
q0 -57 11 -97.5t29 -62.5t41.5 -35.5t49.5 -20.5l52 -14q26 -7 49.5 -19t41.5 -32t28.5 -57t10.5 -90zM763 821v-99h-198v99h198zM838 896h-348v-249h348v249zM450 46v-99h-199v99h199zM525 121h-348v-249h348v249zM1077 46v-99h-199v99h199zM1151 121h-348v-249h348v249z
M1151 121z" />
    <glyph glyph-name="uniE607" unicode="&#xe607;" 
d="M449 480q34 0 59.5 24t25.5 57v194q0 33 -25.5 57.5t-59.5 24.5h-199q-35 0 -59.5 -24t-24.5 -58v-194q0 -33 24.5 -57.5t59.5 -24.5zM522 238h-40q-7 21 -17 40l29 29q10 10 10 24t-10 24l-24 23q-10 10 -23.5 10t-23.5 -10l-30 -29q-18 9 -38 15v41q0 14 -9.5 23.5
t-23.5 9.5h-34q-14 0 -23.5 -9.5t-9.5 -23.5v-41q-21 -6 -39 -16l-31 30q-10 10 -24 10t-23 -10l-24 -23q-10 -10 -10 -24t10 -24l30 -30q-10 -19 -16 -39h-40q-14 0 -24 -10t-10 -24v-33q0 -14 10 -24t24 -10h40q6 -20 15 -38l-29 -29q-10 -10 -10 -24t10 -24l24 -24
q9 -9 23 -9t24 9l29 30q19 -11 41 -17v-41q0 -14 9.5 -23.5t23.5 -9.5h34q13 0 23 9.5t10 23.5v41q21 6 39 16l28 -29q10 -9 24 -9t24 9l24 24q10 10 10 24t-10 24l-29 28q11 19 17 39h40q14 0 23.5 10t9.5 24v33q1 14 -9 24t-24 10zM303.5 88q-41.5 0 -70.5 29.5t-29 71
t29 71t70.5 29.5t71 -29.5t29.5 -71t-29.5 -71t-71 -29.5zM304 238q-21 0 -35.5 -14.5t-14.5 -35t14.5 -35.5t35.5 -15t35.5 15t14.5 35.5t-14.5 35t-35.5 14.5zM897 47q34 0 59.5 24t25.5 58v193q0 34 -25.5 58t-59.5 24h-199q-34 0 -59 -24t-25 -58v-193q0 -34 25 -58
t59 -24h199zM897 480q34 0 59.5 24t25.5 57v194q0 33 -25.5 57.5t-59.5 24.5h-199q-34 0 -59 -24t-25 -58v-194q0 -33 25 -57.5t59 -24.5z" />
    <glyph glyph-name="uniE608" unicode="&#xe608;" 
d="M959 237q-3 -10 -8.5 -31t-11 -37t-11.5 -29q-41 -86 -128 -130t-184 -28q-93 15 -160.5 85.5t-78.5 163.5q-11 91 27 169.5t113.5 122.5t166.5 40q102 -5 179.5 -76t92.5 -172l3 -11v-67zM701 87v381h-62v-381h62zM573 87v253h-62v-253h62zM829 277h-62v-190h62v190z
M61 763q15 29 53 29q84 -1 497 -1q29 0 40 -11t11 -41v-84q0 -28 -11 -38.5t-39 -10.5q-418 0 -500 -1q-36 0 -51 29v129zM130 699.5q0 -17.5 11.5 -30t29 -13.5t31 12t13.5 30t-13 30t-30 13t-29.5 -12t-12.5 -29.5zM61 535q16 27 54 27h295h20q-53 -57 -56 -61
q-41 -50 -60 -110q-4 -15 -20 -14q-121 1 -178 -1q-39 0 -55 26v133zM61 300q15 29 53 28h163h21q-13 -96 18 -183l-6 -2h-100h-110q-22 0 -39 27v130z" />
    <glyph glyph-name="uniE609" unicode="&#xe609;" 
d="M550 57zM317 358q-61 58 -169 67q19 11 55 33l54 33q9 6 8.5 15.5t-9 15t-17.5 -0.5q-18 -11 -150 -91q-6 -4 -8 -11t2 -13q10 -18 91 -150q7 -9 16 -9t14.5 8.5t0.5 17.5l-71 117q103 -4 159 -57q47 -45 47 -122v-242h35v242q0 92 -58 147zM676 599q8 -8 17.5 -4.5
t12 12t-4.5 17.5l-170 170q-6 5 -13 5t-12 -5q-29 -29 -87 -86.5t-87 -86.5q-8 -8 -4.5 -17.5t12.5 -12t17 4.5l142 142v-769h36v771q23 -24 70.5 -71t70.5 -70zM931 360l-172 36q-11 2 -17.5 -5.5t-4.5 -17t12 -11.5q90 -19 135 -28q-54 -24 -99 -63q-126 -110 -126 -294
v-8h34v8q0 62 16.5 115t39.5 87t54 61.5t53 40t44 22.5q-5 -22 -13.5 -64t-13.5 -63q-2 -11 5.5 -17.5t17 -4.5t12.5 13l35 172q2 7 -1.5 13.5t-10.5 7.5z" />
    <glyph glyph-name="uniE60A" unicode="&#xe60a;" 
d="M959 -70h-894q-10 0 -17 7.5t-7 17t7 16.5t17 7h894q10 0 17 -7t7 -16.5t-7 -17t-17 -7.5zM959 -70zM321 615h-88q-10 0 -17 7t-7 17t7 16.5t17 6.5h88q10 0 17 -6.5t7 -16.5t-7 -17t-17 -7zM321 615zM513 615h-88q-10 0 -17 7t-7 17t7 16.5t17 6.5h88q10 0 17 -6.5
t7 -16.5t-7 -17t-17 -7zM513 615zM724 364v88q0 10 7 17t17 7t17 -7t7 -17v-88q0 -10 -7 -17t-17 -7t-17 7t-7 17zM724 364zM724 124v89q0 10 7 17t17 7t17 -7t7 -17v-89q0 -10 -7 -17t-17 -7t-17 7t-7 17zM724 124zM321 402h-88q-10 0 -17 7t-7 17t7 17t17 7h88q10 0 17 -7
t7 -17t-7 -17t-17 -7zM321 402zM513 402h-88q-10 0 -17 7t-7 17t7 17t17 7h88q10 0 17 -7t7 -17t-7 -17t-17 -7zM513 402zM321 189h-88q-10 0 -17 7t-7 17t7 17t17 7h88q10 0 17 -7t7 -17t-7 -17t-17 -7zM321 189zM513 189h-88q-10 0 -17 7t-7 17t7 17t17 7h88q10 0 17 -7
t7 -17t-7 -17t-17 -7zM513 189zM97 -46v812q0 30 21 51t51 21h406q30 0 51 -21t21 -51v-796q0 -9 -7 -16t-17 -7t-17 7t-7 16v796q0 10 -7 17t-17 7h-406q-10 0 -17 -7t-7 -17v-812h-48zM626 615h220q30 0 51 -21t21 -51v-576q0 -10 -7 -17t-17 -7t-17 7t-7 17v576
q0 10 -7 17t-17 7h-220v48z" />
    <glyph glyph-name="uniE60B" unicode="&#xe60b;" horiz-adv-x="1061" 
d="M987 713h-188v87q0 40 -29 68t-70 28h-325q-41 0 -70 -28t-29 -68v-87h-203q-40 0 -56.5 -16.5t-16.5 -56.5v-695q0 -40 16.5 -56.5t56.5 -16.5h914q41 0 57.5 16.5t16.5 56.5v695q0 40 -16.5 56.5t-57.5 16.5zM341 800q0 13 10 23t24 10h325q14 0 24 -10t10 -23v-87
h-393v87zM987 -18q0 -14 -11 -25.5t-25 -11.5h-841q-14 0 -25.5 11.5t-11.5 25.5v621q0 14 11.5 25.5t25.5 11.5h841q14 0 25 -11.5t11 -25.5v-621zM630 512h-185v-136h-141v-180h141v-136h185v136h138v180h-138v136zM703 313v-54h-138v-136h-55v136h-141v54h141v136h55
v-136h138z" />
    <glyph glyph-name="uniE60C" unicode="&#xe60c;" 
d="M879 384q67 73 90 139q24 68 -2 113q-40 69 -165 69q-49 0 -110 -12q-32 93 -79 144.5t-101 51.5t-101 -51.5t-79 -144.5q-61 12 -110 12q-125 0 -165 -69q-26 -45 -2 -113q23 -66 90 -139q-67 -73 -90 -139q-24 -68 2 -113q40 -69 165 -69q49 0 110 12q32 -93 79 -144.5
t101 -51.5t101 51.5t79 144.5q61 -12 110 -12q125 0 165 69q26 45 2 113q-23 66 -90 139zM802 111q-43 0 -97 10q17 63 25 135q64 45 114 93q56 -61 77.5 -112t4.5 -82q-26 -44 -124 -44zM735 448q41 -32 75 -64q-34 -32 -75 -64q2 34 2 64t-2 64zM730 512q-8 72 -25 135
q54 10 97 10q98 0 124 -44q17 -31 -4.5 -82t-77.5 -112q-50 48 -114 93zM512 -73q-38 0 -74 44q-34 42 -59 115q65 17 133 46q68 -29 133 -46q-26 -75 -61 -117t-72 -42zM512 841q37 0 72 -42t61 -117q-66 -17 -133 -46q-67 29 -133 46q25 73 59 115q36 44 74 44zM690 384
q0 -49 -5 -101q-41 -28 -84 -53q-42 -24 -89 -46q-47 22 -89 46q-43 25 -84 53q-5 52 -5 101t5 101q41 28 84 53q42 25 89 46q47 -22 89 -46t84 -53q5 -52 5 -101zM625 579q-24 14 -54 29q45 18 88 29q11 -43 18 -90q-27 17 -52 32zM453 608q-29 -15 -54 -29t-52 -32
q7 48 18 90q43 -11 88 -29zM399 189q25 -14 54 -29q-45 -18 -88 -29q-11 43 -18 90q27 -18 52 -32zM571 160q29 15 54 29t52 32q-7 -47 -18 -90q-42 11 -88 29zM222 657q43 0 97 -10q-17 -63 -25 -135q-64 -45 -114 -93q-56 61 -77.5 112t-4.5 82q26 44 124 44zM289 320
q-41 32 -75 64q34 32 75 64q-2 -34 -2 -64t2 -64zM180 349q50 -48 114 -93q8 -72 25 -135q-54 -10 -97 -10q-98 0 -124 44q-17 31 4.5 82t77.5 112zM512 470q-35 0 -60.5 -25.5t-25.5 -60.5t25.5 -60.5t60.5 -25.5t60.5 25.5t25.5 60.5t-25.5 60.5t-60.5 25.5zM512 346
q-16 0 -27 11t-11 27t11 27t27 11t27 -11t11 -27t-11 -27t-27 -11z" />
    <glyph glyph-name="uniE60D" unicode="&#xe60d;" 
d="M4 281v138q0 9 7 16t16 7h244l-106 -184h-138q-9 0 -16 6.5t-7 16.5zM178 -1l-78 -53q-8 -5 -12.5 -2t-3.5 12l10 90q1 10 7.5 13t15.5 -1l60 -35q8 -5 8.5 -12t-7.5 -12zM196 50l-60 34q-8 5 -10.5 14t2.5 17l278 483q5 8 14.5 10.5t17.5 -2.5l60 -34q8 -5 10.5 -14
t-2.5 -17l-278 -483q-5 -8 -14 -10.5t-18 2.5zM408 258l106 184h61l86 -184h-253zM754 203q-9 4 -32.5 49t-53.5 110.5t-51 113t-38 86.5q-4 10 -12 28t-15.5 35t-17 38t-17 40t-15.5 39t-13 36t-7.5 29.5t-2 22t5.5 10.5q10 5 33.5 -28.5t65 -105t57.5 -96.5
q25 -40 68.5 -119.5t83 -154t40.5 -76.5q10 -18 -2 -33.5t-28 -22.5q-2 0 -6 -2t-5.5 -2.5t-5 -1.5t-5.5 -1h-5q-4 0 -7 0.5t-7 2t-8 3.5zM832 77l-36 57q-5 8 -2.5 18t11.5 14l34 18q9 5 19 1.5t15 -12.5l29 -55q5 -9 2 -19.5t-12 -15.5l-25 -15q-8 -5 -18.5 -2.5
t-16.5 11.5zM966 -73q-3 10 -20.5 18t-39 18.5t-32.5 25.5q-11 17 -11 31.5t4 19.5t12 13q73 41 86 -59q4 -34 1 -67zM1020 281q0 -10 -7 -16.5t-16 -6.5h-122q-3 12 -8 21q-3 6 -22 42q-34 65 -64 121h216q9 0 16 -7t7 -16v-138v0zM1020 281z" />
    <glyph glyph-name="uniE60E" unicode="&#xe60e;" 
d="M504 469v-75h21q44 0 44 38q0 37 -43 37h-22zM793 567v210q0 23 -16.5 39.5t-39.5 16.5h-448q-23 0 -39.5 -16.5t-16.5 -39.5v-210h-104v-350h104v-224q0 -23 16.5 -39.5t39.5 -16.5h448q23 0 39.5 16.5t16.5 39.5v224h104v350h-104zM737 763v-196h-448v196h448zM621 434
q0 -36 -26 -57.5t-66 -20.5h-25v-81h-50v233h80q87 0 87 -74zM262 328l-17 -53h-54l85 233h59l83 -233h-54l-17 53h-85zM513.5 -35q-11.5 0 -20 8t-8.5 20t8.5 20t20 8t19.5 -8t8 -20t-8 -20t-19.5 -8zM737 49h-448v168h448v-168zM791 376.5q-26 -21.5 -66 -20.5h-25v-81
h-50v233h80q87 0 87 -74q0 -36 -26 -57.5zM722 469h-22v-75h21q44 0 44 38q0 37 -43 37zM305 468h-1q-1 -11 -5 -20l-26 -81h62l-26 80q-3 8 -4 21z" />
    <glyph glyph-name="uniE60F" unicode="&#xe60f;" horiz-adv-x="1412" 
d="M718 -128h-13q-60 2 -121.5 16t-103.5 30.5t-81.5 38t-53 31t-22.5 15.5l-11 9v382l-312 155l700 347l712 -339l-334 -166v-383l-10 -8q-6 -7 -18 -16.5t-47 -31t-73 -38t-95.5 -29.5t-116.5 -13zM370 41l6 -4q33 -21 72 -41t113 -42t145 -24h11q54 0 106 12t91 30.5
t61.5 32t39.5 26.5l5 3v327l-320 -159l-330 163v-324zM131 549l569 -282l579 289l-579 275zM36 320h59v-292h-59v292zM763 676l7 14l191 -93l-7 -14zM1052 551l-7 -15l-19 10l7 14z" />
    <glyph glyph-name="uniE610" unicode="&#xe610;" 
d="M881 -5l-368 -123l-369 123l-82 819h901zM144 732l61 -676l308 -102l307 102l61 676h-737zM328 548l21 -123h409l-20 -287l-231 -82l-204 94l-14 111h66l14 -61l141 -62l156 62l10 143h-327h-68l-33 287h527l-6 -82h-441z" />
    <glyph glyph-name="uniE611" unicode="&#xe611;" 
d="M257 629l35 -85h668v-43h-651l34 -85h553v-43h-536l34 -85h438v-43h-277h-144h-45l-206 512h-160v43h192v-8l48 -120h784v-43h-767zM341.5 139q35.5 0 60.5 -25t25 -60.5t-25 -60.5t-60.5 -25t-60.5 25t-25 60.5t25 60.5t60.5 25zM853.5 139q35.5 0 60.5 -25t25 -60.5
t-25 -60.5t-60.5 -25t-60.5 25t-25 60.5t25 60.5t60.5 25z" />
    <glyph glyph-name="uniE612" unicode="&#xe612;" 
d="M923 474q-16 2 -28.5 -8.5t-14.5 -26.5q-31 -277 -199 -398q-77 -56 -158 -66q-14 2 -33 7t-52.5 18t-72 40.5t-71.5 66.5q-156 184 -131 559q121 10 209 44.5t141 71.5q126 -86 304 -111l-322 -348l-178 177q-11 11 -27.5 11t-28 -11.5t-11 -27.5t11.5 -28l206 -205
q12 -11 28 -11h1q16 0 28 12l402 436q4 4 7 9q0 1 1 3v1q1 1 1 3h1q1 6 1 12v1q-1 2 -1 3v2v1q0 1 -1 2q0 2 -0.5 2t-0.5 1q-1 2 -1 3v1l-2 2v1l-2 2v1h-1l-1 2l-1 1l-1 1q0 1 -1 1q-1 1 -3 2q0 1 -1 1q-2 1 -2 1.5t-1 0.5l-2 1q-1 1 -2 1h-1l-1 1h-2v1h-2l-2 1h-1h-4
q-66 4 -128 17.5t-101 29t-73 34t-45 26.5t-16 12q-11 10 -25.5 9.5t-25.5 -9.5q-5 -5 -15 -12.5t-44 -26t-72.5 -34t-101 -29t-129.5 -17.5h-1h-2q-1 0 -2 -1h-2q-1 0 -2 -1h-2q-1 0 -2 -1h-1q-1 -1 -2 -1l-1 -1q-1 -1 -3 -1q0 -1 -1 -1q0 -1 -2 -2h-1q0 -1 -1 -2l-2 -2
l-1 -1l-1 -1q0 -1 -1 -1.5t-1 -1.5t-0.5 -2t-1.5 -1l-1 -2v-2q-1 -1 -1 -2t-0.5 -1.5t-0.5 -2.5v-1q-1 -1 -1 -2v-1v-1q-38 -434 148 -651q39 -45 85 -78t86.5 -48.5t64.5 -21.5t43 -9h7h1h1v0h8q98 12 191 78q38 26 71.5 62.5t68 90.5t59.5 132t36 171q1 16 -9 28.5
t-26 14.5z" />
    <glyph glyph-name="uniE613" unicode="&#xe613;" 
d="M980 128q-28 28 -69 28h-90q-39 0 -69 -28q-28 -30 -28 -69v-90q0 -41 28 -69q30 -28 69 -28h90q41 0 69 28t28 69v90q0 39 -28 69zM951 -31q0 -16 -12 -27.5t-28 -11.5h-90q-16 0 -28 11q-10 11 -10 28v90q0 17 10.5 28t27.5 11h90q17 0 28 -11q12 -12 12 -28v-90z
M550 156h-91q-40 0 -68 -28t-28 -69v-90q0 -42 28 -69q28 -28 68 -28h91q39 0 68 28t29 69v90q0 39 -29 69q-29 28 -68 28zM588 -31q0 -17 -11 -28t-27 -11h-91q-16 0 -27.5 11.5t-11.5 27.5v90q0 16 12 28q11 11 27 11h91q17 0 27.5 -11t10.5 -28v-90zM618 851
q-29 28 -68 28h-91q-40 0 -68 -28t-28 -68v-91q0 -41 28 -68q27 -28 68 -28h91q40 0 68.5 28t28.5 68v91q0 39 -29 68zM588 692q0 -16 -11 -27q-11 -12 -27 -12h-91q-16 0 -27.5 11.5t-11.5 27.5v91q0 16 12 27t27 11h91q17 0 27.5 -11t10.5 -27v-91zM114 217q0 -12 8.5 -20
t20.5 -8t20.5 8t8.5 20v152h303v-152q0 -12 9 -20q9 -9 20.5 -9t20.5 9q8 8 8 20v152h304v-152q0 -12 9 -20q9 -9 21 -9q10 0 20 9q8 8 8 20v181q0 12 -8 21q-9 8 -20 8h-333v107q0 10 -9 21q-8 8 -20.5 8t-20.5 -8q-9 -10 -9 -21v-107h-332q-12 0 -21 -8q-9 -9 -9 -21h1
v-181zM188 156h-91q-39 0 -68 -28q-29 -30 -29 -69v-90q0 -41 29 -69t68 -28h91q40 0 68 28q28 27 28 69v90q0 41 -28 69t-68 28zM227 -31q0 -16 -11.5 -27.5t-27.5 -11.5h-91q-16 0 -27 11t-11 28v90q0 17 11 28t27 11h91q16 0 27 -11q12 -12 12 -28v-90z" />
    <glyph glyph-name="uniE614" unicode="&#xe614;" 
d="M1018 750q6 12 6 24q0 46 -85 78.5t-204.5 32.5t-204.5 -32.5t-85 -78.5q0 -12 7 -24q-7 -3 -7 -10v-184q-71 17 -156 17q-119 0 -204 -32.5t-85 -78.5q0 -12 6 -23q-6 -3 -6 -10v-446q0 -5 5 -9q19 -39 99 -65t185.5 -26t185.5 26t99 65q5 4 5 9v74q71 -18 156 -18
q105 0 185 26t99 65q5 3 5 9v601q0 7 -6 10zM289.5 529q101.5 0 173 -19.5t71.5 -47.5t-71.5 -47.5t-173 -19.5t-173 19.5t-71.5 47.5t71.5 47.5t173 19.5zM45 403q39 -24 103.5 -38t140.5 -14t141 14t104 38v-97q0 -28 -71.5 -47.5t-173 -19.5t-173 19.5t-71.5 47.5v97z
M45 247q39 -24 103.5 -38t140.5 -14t141 14t104 38v-97q0 -27 -71.5 -47t-173 -20t-173 20t-71.5 47v97zM289.5 -72q-101.5 0 -173 19.5t-71.5 46.5v97q39 -24 103.5 -38t140.5 -14t141 14t104 38v-97q0 -27 -71.5 -46.5t-173 -19.5zM979 150q0 -27 -71.5 -47t-172.5 -20
q-88 0 -156 16v114q72 -18 156 -18q76 0 140.5 14t103.5 38v-97zM979 306q0 -28 -71.5 -47.5t-172.5 -19.5q-88 0 -156 16v113q72 -17 156 -17q76 0 140.5 14t103.5 38v-97zM979 462q0 -28 -71.5 -47.5t-172.5 -19.5q-88 0 -156 15v19q0 7 -7 10q7 11 7 23q0 23 -23.5 44
t-65.5 36v17q39 -24 104 -38.5t141 -14.5t140.5 14.5t103.5 38.5v-97zM979 618q0 -28 -71.5 -47.5t-173 -19.5t-173 19.5t-71.5 47.5v96q39 -24 104 -38t141 -14t140.5 14t103.5 38v-96zM734.5 707q-101.5 0 -173 19.5t-71.5 47t71.5 47t173 19.5t173 -19.5t71.5 -47
t-71.5 -47t-173 -19.5z" />
  </font>
</defs>
</svg>
